<svg height="481pt" viewBox="-65 0 481 481.644" width="481pt" xmlns="http://www.w3.org/2000/svg"><path d="m107.816406 289.613281h135.808594c55.503906-.003906 100.496094 44.988281 100.496094 100.492188v84.558593h-336.800782v-84.558593c0-55.503907 44.996094-100.496094 100.496094-100.492188zm0 0" fill="#45988e"/><path d="m243.625 289.613281h-21.71875c55.5 0 100.492188 44.992188 100.492188 100.492188v84.558593h21.71875v-84.558593c0-55.5-44.992188-100.492188-100.492188-100.492188zm0 0" fill="#348277"/><path d="m60.523438 385.835938h230.398437c9.964844 0 18.042969 8.078124 18.042969 18.042968v70.800782h-266.480469v-70.800782c0-9.960937 8.074219-18.039062 18.039063-18.042968zm0 0" fill="#274d59"/><path d="m290.921875 385.835938h-17.601563c9.96875 0 18.046876 8.078124 18.046876 18.042968v70.800782h17.597656v-70.800782c0-9.964844-8.078125-18.042968-18.042969-18.042968zm0 0" fill="#1b3c44"/><path d="m116.523438 289.613281h-8.707032c-9.585937 0-19.125 1.371094-28.324218 4.074219v92.152344h37.03125zm0 0" fill="#274d59"/><path d="m271.945312 293.6875c-9.199218-2.703125-18.734374-4.074219-28.324218-4.074219h-8.699219v96.222657h37.007813zm0 0" fill="#274d59"/><path d="m107.816406 289.613281c-1.925781 0-3.828125.097657-5.726562.207031v96h14.398437v-96.207031zm0 0" fill="#1b3c44"/><path d="m257.535156 290.597656v95.238282h14.398438v-92.152344c-4.71875-1.378906-9.53125-2.410156-14.398438-3.085938zm0 0" fill="#1b3c44"/><path d="m116.507812 426.546875h118.429688v48.113281h-118.429688zm0 0" fill="#45988e"/><path d="m116.507812 426.546875h118.429688v19.453125h-118.429688zm0 0" fill="#348277"/><path d="m91.722656 131.15625h168v71.089844c0 39.394531-31.933594 71.324218-71.324218 71.324218h-25.351563c-39.390625 0-71.324219-31.929687-71.324219-71.324218zm0 0" fill="#f9ad6a"/><path d="m244.820312 131.15625v71.089844c0 39.394531-31.929687 71.324218-71.324218 71.324218h14.902344c39.390624 0 71.324218-31.929687 71.324218-71.324218v-71.089844zm0 0" fill="#ea8c46"/><path d="m82.097656 110.40625h187.25c5.730469 0 10.375 4.644531 10.375 10.375s-4.644531 10.375-10.375 10.375h-187.25c-5.730468 0-10.375-4.644531-10.375-10.375s4.644532-10.375 10.375-10.375zm0 0" fill="#fff471"/><path d="m169.949219 25.144531h11.546875c47.089844 0 85.261718 38.175781 85.261718 85.261719h-182.070312c0-47.089844 38.171875-85.261719 85.261719-85.261719zm0 0" fill="#fff471"/><path d="m181.492188 25.144531h-11.542969c-1.363281 0-2.695313.140625-4.042969.203125 45.429688 2.136719 81.175781 39.578125 81.199219 85.058594h19.636719c0-47.082031-38.164063-85.253906-85.25-85.261719zm0 0" fill="#f7cb4f"/><path d="m84.6875 110.40625h182.070312c-.03125-4.007812-.34375-8.007812-.9375-11.972656h-180.199218c-.589844 3.964844-.902344 7.964844-.933594 11.972656zm0 0" fill="#f7cb4f"/><path d="m259.722656 165.980469h-76.101562c-19.230469 0-34.824219-15.589844-34.824219-34.824219h110.925781zm-168 0h22.253906c19.234376 0 34.824219-15.589844 34.824219-34.824219h-57.078125zm0 0" fill="#274d59"/><path d="m244.703125 131.15625h15.019531v34.824219h-15.019531zm0 0" fill="#1b3c44"/><path d="m150.375 141.53125h109.347656v-10.375h-110.921875c-.003906 3.519531.527344 7.015625 1.574219 10.375zm0 0" fill="#1b3c44"/><path d="m91.722656 141.53125h55.507813c1.046875-3.359375 1.574219-6.855469 1.570312-10.375h-57.078125zm0 0" fill="#1b3c44"/><path d="m188.398438 273.570312h-25.351563c-10.863281-.003906-21.582031-2.507812-31.324219-7.3125v18.125c0 17.472657 14.164063 31.636719 31.636719 31.636719h24.707031c17.480469.011719 31.65625-14.15625 31.65625-31.636719v-18.125c-9.742187 4.804688-20.460937 7.308594-31.324218 7.3125zm0 0" fill="#f9ad6a"/><path d="m163.046875 273.570312c-10.863281-.003906-21.582031-2.507812-31.324219-7.3125v13.007813c9.738282 4.804687 20.453125 7.304687 31.316406 7.3125h25.347657c10.867187-.003906 21.589843-2.507813 31.335937-7.3125v-13.007813c-9.742187 4.804688-20.457031 7.304688-31.316406 7.3125zm0 0" fill="#ea8c46"/><path d="m219.304688 64.074219 11.066406 11.066406 27.421875-24.265625-14.222657-14.222656zm0 0" fill="#f7cb4f"/><path d="m132.136719 64.074219-11.0625 11.066406-27.425781-24.265625 14.226562-14.222656zm0 0" fill="#f7cb4f"/><path d="m156.722656 54.855469h38l5.429688-47.835938h-48.863282zm0 0" fill="#f7cb4f"/><path d="m273.214844 166.347656h-13.492188v35.894532c0 2.28125-.132812 4.53125-.339844 6.753906h1.164063c12.921875 0 23.394531-10.476563 23.394531-23.394532v-8.527343c0-5.921875-4.800781-10.726563-10.726562-10.726563zm0 0" fill="#f9ad6a"/><path d="m273.214844 166.347656h-8.632813c2.847657-.003906 5.578125 1.125 7.59375 3.136719 2.015625 2.015625 3.144531 4.746094 3.144531 7.589844v8.527343c-.003906 10.011719-6.378906 18.914063-15.863281 22.132813-.03125.402344-.023437.851563-.0625 1.261719h1.164063c12.921875 0 23.394531-10.476563 23.394531-23.394532v-8.527343c0-2.84375-1.132813-5.574219-3.144531-7.589844-2.015625-2.011719-4.746094-3.140625-7.59375-3.136719zm0 0" fill="#ea8c46"/><path d="m91.722656 202.246094v-35.898438h-13.492187c-5.925781 0-10.726563 4.804688-10.726563 10.726563v8.527343c0 12.917969 10.472656 23.394532 23.394532 23.394532h1.164062c-.207031-2.21875-.339844-4.46875-.339844-6.75zm0 0" fill="#f9ad6a"/><path d="m91.722656 166.347656h-9.375v35.894532c0 1.761718.132813 3.484374.261719 5.203124 2.648437 1.011719 5.457031 1.535157 8.292969 1.539063h1.164062c-.207031-2.222656-.339844-4.472656-.339844-6.753906zm0 0" fill="#ea8c46"/><g fill="#274d59"><path d="m154.003906 189.003906c0 5.347656-4.335937 9.679688-9.683594 9.679688-5.34375 0-9.679687-4.332032-9.679687-9.679688s4.335937-9.679687 9.679687-9.679687c5.347657 0 9.683594 4.332031 9.683594 9.679687zm0 0"/><path d="m216.800781 189.003906c0 5.347656-4.332031 9.679688-9.679687 9.679688-5.34375 0-9.679688-4.332032-9.679688-9.679688s4.335938-9.679687 9.679688-9.679687c5.347656 0 9.679687 4.332031 9.679687 9.679687zm0 0"/><path d="m219.75 266.234375c-3.867188 0-7-3.132813-7-7v-15.023437c0-9.484376-7.691406-17.175782-17.175781-17.175782h-39.703125c-9.488282 0-17.175782 7.691406-17.175782 17.175782v15.027343c0 3.867188-3.136718 7-7 7-3.867187 0-7-3.132812-7-7v-15.027343c0-17.21875 13.957032-31.175782 31.175782-31.175782h39.707031c17.21875 0 31.175781 13.957032 31.175781 31.175782v15.027343c-.003906 3.867188-3.136718 7-7.003906 6.996094zm0 0"/></g><path d="m161.003906 240.378906h29.4375c3.867188 0 7 3.136719 7 7 0 3.867188-3.132812 7-7 7h-29.4375c-3.867187 0-7-3.132812-7-7 0-3.863281 3.132813-7 7-7zm0 0" fill="#ea8c46"/><path d="m92.324219 419.546875h166.792969v14h-166.792969zm0 0" fill="#45988e"/><path d="m330.921875 356.566406c-1.777344-4.605468-3.917969-9.0625-6.398437-13.332031l12.101562-7.03125c2.851562 4.910156 5.308594 10.042969 7.347656 15.339844zm-330.601563 118.09375v-84.554687c.0625-59.34375 48.15625-107.4375 107.496094-107.492188h16.984375c0-.488281-.070312-.96875-.070312-1.460937v-10.648438c-10.257813-5.742187-19.09375-13.71875-25.851563-23.335937l11.460938-8.039063c3.964844 5.640625 8.808594 10.605469 14.351562 14.710938v-9.628906c.011719-17.210938 13.960938-31.160157 31.175782-31.175782h39.707031c17.210937.015625 31.164062 13.964844 31.175781 31.175782v9.554687c16.320312-12.097656 25.953125-31.203125 25.972656-51.519531v-29.265625h-41.242187c8.070312 2.1875 13.273437 10.011719 12.171875 18.300781-1.105469 8.289062-8.171875 14.476562-16.535156 14.476562-8.359376 0-15.429688-6.1875-16.535157-14.476562-1.101562-8.289062 4.101563-16.113281 12.171875-18.300781h-19.132812c-14.007813-.007813-27.082032-7.03125-34.824219-18.703125-7.742187 11.671875-20.8125 18.695312-34.824219 18.703125h-15.25v29.265625c-.023437 9.113281 1.90625 18.125 5.660156 26.425781l-12.761718 5.761719c-2.6875-6.023438-4.59375-12.367188-5.671875-18.875-14.652344-2.4375-25.402344-15.101563-25.425781-29.953125v-8.53125c.007812-9.785157 7.9375-17.71875 17.726562-17.726563h6.472656v-21.199218h-2.625c-8.78125.015624-16.191406-6.535157-17.25-15.253907s4.566406-16.851562 13.097656-18.9375c1.082032-15.828125 6.277344-31.097656 15.082032-44.296875l-4-3.546875c-1.449219-1.28125-2.300782-3.101562-2.359375-5.03125-.058594-1.929687.679687-3.796875 2.046875-5.160156l14.207031-14.222656c1.367187-1.363281 3.234375-2.105469 5.164063-2.046875 1.929687.058594 3.75.914062 5.027343 2.359375l3.074219 3.472656c8.972656-6.433594 19.027344-11.210937 29.6875-14.097656l-1.539062-13.597657c-.226563-1.980468.40625-3.964843 1.734374-5.453124 1.328126-1.484376 3.226563-2.335938 5.21875-2.335938h48.863282c1.996094 0 3.894531.851562 5.222656 2.335938 1.328125 1.488281 1.960938 3.472656 1.734375 5.453124l-1.546875 13.640626c3.136719.824218 6.226562 1.8125 9.253906 2.964843l-5.050781 13.058594c-1.894531-.734375-3.84375-1.367187-5.800781-1.953125l-2.285156 20.140625c-.402344 3.539063-3.394532 6.210937-6.957032 6.210937h-38c-3.5625 0-6.554687-2.671874-6.957031-6.210937l-2.285156-20.132813c-7.820313 2.34375-15.226563 5.898438-21.949219 10.53125l11.847656 13.394532c2.460938 2.769531 2.332032 6.980468-.292968 9.597656l-11.0625 11.066406c-2.621094 2.621094-6.828126 2.75-9.601563.289063l-12.800781-11.332031c-6.542969 10.371093-10.519532 22.148437-11.597656 34.359374h167.40625c-1.078126-12.210937-5.054688-23.988281-11.601563-34.359374l-12.796875 11.332031c-2.773438 2.460937-6.984375 2.332031-9.601562-.289063l-11.0625-11.066406c-2.625-2.617188-2.753907-6.828125-.292969-9.597656l11.832031-13.394532c-2.550781-1.78125-5.203125-3.40625-7.949219-4.871093l6.523438-12.398438c3.742187 1.980469 7.339843 4.21875 10.769531 6.695313l3.074219-3.476563c1.28125-1.445312 3.101562-2.300781 5.03125-2.359375 1.929687-.058594 3.796875.683594 5.164062 2.046875l14.222657 14.222657c1.363281 1.367187 2.105468 3.234374 2.046874 5.164062-.058593 1.929688-.914062 3.75-2.359374 5.03125l-4 3.546875c8.800781 13.199219 14 28.46875 15.082031 44.296875 8.53125 2.082031 14.15625 10.21875 13.097656 18.9375s-8.46875 15.269531-17.25 15.253906h-2.636719v21.199219h6.492188c9.785156.019531 17.710937 7.960937 17.707031 17.746094v8.53125c-.027344 14.855469-10.78125 27.519531-25.4375 29.953125-4.03125 23.207031-18.277344 43.371094-38.796875 54.929687v10.664063c0 .492187-.058594.972656-.074219 1.460937h16.988281c27.808594-.054687 54.542969 10.71875 74.539063 30.042969l-9.710937 10.082031c-8.527344-8.21875-18.542969-14.742187-29.507813-19.21875v75.320313h12c13.824219.011718 25.027344 11.214844 25.042969 25.039062v63.78125h21.160156v-77.554687c.003906-7.183594-.816406-14.339844-2.441406-21.332031l13.628906-3.203126c1.867188 8.039063 2.808594 16.265626 2.800781 24.519532v84.554687c0 3.867188-3.132812 7-7 7h-336.792969c-3.855468-.003906-6.984374-3.125-6.996093-6.984375zm247.261719-424.097656-3.699219-3.699219-14.960937 16.921875 1.753906 1.75zm-88.453125-36.546875 3.839844 33.835937h25.503906l3.839844-33.835937zm-55.265625 36.546875 16.917969 14.972656 1.753906-1.746094-14.972656-16.921874zm105.9375 138.445312c.003907-1.480468-1.195312-2.683593-2.675781-2.683593s-2.683594 1.199219-2.683594 2.679687c0 1.480469 1.199219 2.679688 2.679688 2.679688 1.480468 0 2.679687-1.195313 2.679687-2.675782zm56.921875-15.65625v27.421876c6.164063-2.519532 10.191406-8.511719 10.199219-15.167969v-8.53125c-.003906-2.054688-1.667969-3.722657-3.726563-3.726563zm-184.625-49.199218h187.25c1.816406-.0625 3.257813-1.554688 3.257813-3.375 0-1.820313-1.441407-3.3125-3.257813-3.375h-187.25c-1.863281 0-3.375 1.511718-3.375 3.378906 0 1.863281 1.511719 3.375 3.375 3.375zm2.625 76.617187v-27.421875h-6.492187c-2.058594.003906-3.726563 1.671875-3.726563 3.726563v8.53125c.007813 6.660156 4.046875 12.65625 10.21875 15.167969zm56.152344-62.613281h-42.152344v20.824219h15.253906c12.65625-.023438 23.707032-8.578125 26.898438-20.824219zm111.847656 20.824219v-20.824219h-96c3.191406 12.246094 14.238282 20.800781 26.894532 20.824219zm-129.199218 274.570312v34.113281h104.414062v-34.113281zm120.117187-136.933593h-1.6875v82.222656h23.007813v-79.683594c-6.988282-1.664062-14.148438-2.515625-21.335938-2.542969zm-104.929687-52.402344v17.40625c3.164062 1.34375 6.433593 2.433594 9.773437 3.257812l.402344.085938c2.21875.511718 4.464843.898437 6.726562 1.167968.179688.019532.363281.03125.542969.046876 2.296875.257812 4.601562.390624 6.910156.398437h25.347656c2.339844-.003906 4.675782-.136719 7-.398437.550782-.058594 1.082032-.175782 1.628907-.246094 1.804687-.25 3.597656-.535156 5.375-.9375.476562-.105469.9375-.242188 1.402343-.363282 1.894532-.476562 3.777344-1.011718 5.632813-1.664062.296875-.105469.589844-.214844.886719-.324219.796875-.300781 1.597656-.691406 2.425781-1.027343v-17.40625c-.011719-9.480469-7.695313-17.160157-17.175781-17.175782h-39.71875c-9.480469.015625-17.164063 7.695313-17.175782 17.175782zm.035156 32.453125v4.484375c.015625 15.382812 12.484375 27.851562 27.867187 27.867187h18.25c15.382813-.015625 27.847657-12.484375 27.867188-27.867187v-4.488282h-.066407c-1.199218.398438-2.421874.710938-3.644531 1.046876-1.136719.3125-2.273437.621093-3.417969.882812-1.003906.226562-2 .425781-3.03125.609375-1.496093.28125-3.003906.503906-4.515624.691406-.800782.101563-1.601563.21875-2.4375.292969-2.398438.21875-4.800782.363281-7.199219.363281h-25.367188c-1.871093 0-3.738281-.085937-5.601562-.21875-.585938-.039062-1.171875-.105469-1.757813-.160156-1.335937-.125-2.648437-.28125-3.945312-.472656-.585938-.082031-1.164063-.167969-1.75-.265625-1.769532-.300782-3.53125-.648438-5.265625-1.066406h-.082031c-1.996094-.484376-3.964844-1.0625-5.917969-1.703126zm-11.023438 19.945312h-4.214844v82.226563h34.503907v14h-97.488281c-6.097657.007812-11.035157 4.945312-11.046876 11.039062v63.78125h60v-34.113281h-17.152343v-14h166.800781v14h-17.1875v34.113281h60v-63.78125c-.007812-6.082031-4.929688-11.015625-11.015625-11.039062h-95.527344v-14h32.542969v-82.226563h-4.214844c-6.34375 15.917969-21.738281 26.375-38.875 26.398438h-18.25c-17.136718-.023438-32.53125-10.480469-38.875-26.398438zm-19.910156 0c-7.179688.003907-14.332031.835938-21.324219 2.484375v79.742188h23.007813v-82.226563zm-93.488281 171.046875h21.160156v-63.78125c.015625-13.820312 11.214844-25.019531 25.039063-25.039062h11.964843v-75.28125c-35.144531 14.382812-58.121093 48.566406-58.167969 86.542968zm171.710937-88.820312h-14.714844v14h14.71875zm-41.714844-173.15625c-9.210937.003906-16.679687-7.464844-16.683593-16.679688 0-9.210937 7.46875-16.679687 16.683593-16.679687 9.210938 0 16.679688 7.46875 16.675782 16.683593-.011719 9.203126-7.46875 16.664063-16.675782 16.675782zm0-14c1.480469 0 2.683594-1.199219 2.683594-2.679688-.003906-1.480468-1.203125-2.679687-2.683594-2.679687-1.480468 0-2.679687 1.203125-2.679687 2.683593.003906 1.480469 1.203125 2.675782 2.679687 2.675782zm53.121094 48.695312h-43.4375v14h43.4375zm0 0" fill="#0c282d"/></svg>