<svg id="Layer_1_1_" enable-background="new 0 0 64 64" height="512" viewBox="0 0 64 64" width="512" xmlns="http://www.w3.org/2000/svg"><path d="m51.472 12.135-6.777-2.247c-3.4-1.127-5.695-4.306-5.695-7.888h-17c0 3.582-2.295 6.761-5.695 7.888l-6.777 2.247c-3.864 1.104-6.528 4.635-6.528 8.654v19.832c0 3.034-.621 6.638.589 9.478 1.442 3.384 5.88 6.624 8.597 9.181-.118.901-.186 1.808-.186 2.72h46v-25-16.211c0-4.019-2.664-7.55-6.528-8.654zm-34.268 31.987-2.007 5.353c-1.281-1.28-2.197-3.492-2.197-5.303v-18.172l4.324 13.836c.438 1.403.396 2.911-.12 4.286z" fill="#fbc997"/><path d="m49 36.19v-4.19h-2-2v4.19c.649-.119 1.316-.19 2-.19s1.351.071 2 .19z" fill="#68802f"/><path d="m46 40h2c.552 0 1-.448 1-1v-2.81c-.649-.119-1.316-.19-2-.19s-1.351.071-2 .19v2.81c0 .552.448 1 1 1z" fill="#88bce6"/><circle cx="23" cy="23" fill="#fb805a" r="4"/><circle cx="24" cy="38" fill="#fb805a" r="4"/><circle cx="23" cy="53" fill="#fb805a" r="4"/><path d="m59.5 58h-1.5-22-1.5c-.828 0-1.5.672-1.5 1.5s.672 1.5 1.5 1.5h25c.828 0 1.5-.672 1.5-1.5s-.672-1.5-1.5-1.5z" fill="#98c3e6"/><path d="m49 36.19h-4c-5.119.942-9 5.418-9 10.81v11h22v-11c0-5.391-3.881-9.868-9-10.81z" fill="#98c3e6"/><path d="m54 52c-.552 0-1-.448-1-1v-5c0-.552.448-1 1-1 .552 0 1 .448 1 1v5c0 .552-.448 1-1 1z" fill="#fff"/><circle cx="54" cy="54" fill="#fff" r="1"/><g fill="#88bce6"><path d="m59.5 60.482h-25c-.74 0-1.351-.537-1.474-1.241-.015.085-.026.17-.026.259 0 .828.672 1.5 1.5 1.5h25c.828 0 1.5-.672 1.5-1.5 0-.089-.011-.174-.026-.259-.123.704-.734 1.241-1.474 1.241z"/><path d="m36 57h22v1h-22z"/><path d="m43.251 36.669c.557.193 2.017.331 3.749.331s3.192-.138 3.749-.331c-.564-.204-1.147-.368-1.749-.479h-4c-.602.111-1.185.275-1.749.479z"/></g><path d="m30.97 56.243-1.94-.485.438-1.75c1.638-6.551 1.687-13.489.139-20.063-1.072-4.558-1.419-9.235-1.03-13.902l.427-5.125 1.993.166-.427 5.125c-.371 4.457-.04 8.924.984 13.278 1.62 6.883 1.569 14.147-.146 21.006z" fill="#fbc085"/><path d="m48 32h-2v-2c0-.552.448-1 1-1 .552 0 1 .448 1 1z" fill="#68802f"/><path d="m16.919 44.883c.577-1.202 1.169-2.866 1.345-4.883.374-4.282-5.264-17-5.264-17v3l4.324 13.836c.438 1.402.396 2.911-.12 4.286z" fill="#fbc085"/></svg>