<svg id="electrician" enable-background="new 0 0 300 300" height="512" viewBox="0 0 300 300" width="512" xmlns="http://www.w3.org/2000/svg"><circle cx="131.226" cy="118" fill="#e5efef" r="92"/><path d="m53.226 74c-7.719 0-14-6.281-14-14s6.281-14 14-14 14 6.281 14 14-6.281 14-14 14zm0-20c-3.309 0-6 2.691-6 6s2.691 6 6 6 6-2.691 6-6-2.691-6-6-6z" fill="#4c241d"/><circle cx="269.226" cy="40" fill="#4c241d" r="4.529"/><path d="m203.879 51.348c-1.023 0-2.047-.391-2.828-1.172-1.562-1.562-1.562-4.094 0-5.656l14.695-14.695c1.562-1.562 4.094-1.562 5.656 0s1.562 4.094 0 5.656l-14.695 14.695c-.781.781-1.805 1.172-2.828 1.172z" fill="#4c241d"/><path d="m218.574 51.348c-1.023 0-2.047-.391-2.828-1.172l-14.695-14.696c-1.562-1.562-1.562-4.094 0-5.656s4.094-1.562 5.656 0l14.695 14.695c1.562 1.562 1.562 4.094 0 5.656-.781.782-1.804 1.173-2.828 1.173z" fill="#4c241d"/><path d="m211.226 270h-144v-32.902c0-14.82 8.534-28.25 21.776-34.269l50.224-22.829 50.224 22.829c13.242 6.019 21.776 19.449 21.776 34.269z" fill="#fc8c29"/><path d="m211.226 274h-144c-2.209 0-4-1.791-4-4v-32.902c0-16.371 9.469-31.25 24.121-37.91l50.225-22.828c1.051-.48 2.258-.48 3.309 0l50.225 22.83c14.652 6.658 24.121 21.537 24.121 37.908v32.902c-.001 2.209-1.792 4-4.001 4zm-140-8h136v-28.902c0-13.24-7.627-25.262-19.43-30.625l-48.57-22.078-48.57 22.076c-11.803 5.365-19.43 17.387-19.43 30.627z" fill="#4c241d"/><path d="m139.227 202c-8.837 0-16-7.163-16-16v-8h32v8c-.001 8.837-7.164 16-16 16z" fill="#e7d1c4"/><path d="m139.226 206c-11.027 0-20-8.973-20-20v-8c0-2.209 1.791-4 4-4h32c2.209 0 4 1.791 4 4v8c0 11.027-8.972 20-20 20zm-12-24v4c0 6.617 5.383 12 12 12s12-5.383 12-12v-4z" fill="#4c241d"/><path d="m191.226 120c-.294 0-.336-2.941-.288-6.301.083-5.821-3.813-10.999-9.466-12.394-27.643-6.821-57.325-5.547-84.267 2.727-3.531 1.084-5.848 4.473-5.744 8.166.105 3.746.133 7.801-.236 7.801-5.644 0-10.196 4.676-9.993 10.365.114 3.199 2.081 6.09 4.734 7.88 3.217 2.171 5.98 2.017 8.431 1.192 3.968 19.359 18.022 35.548 37.427 41.794 5.563 1.791 11.581 1.62 17.141-.182l1.775-.575c19.093-6.188 33.023-22.039 37.173-41.079 2.441.861 5.222 1.012 8.371-.95 2.549-1.588 4.495-4.194 4.862-7.174.752-6.09-3.979-11.27-9.92-11.27z" fill="#e7d1c4"/><path d="m139.978 186.502c-3.193 0-6.348-.486-9.377-1.461-19.201-6.182-33.934-21.713-39.223-41.039-2.637.061-5.174-.77-7.648-2.439-3.914-2.643-6.342-6.773-6.496-11.053-.135-3.842 1.256-7.475 3.918-10.232 1.783-1.846 3.975-3.137 6.379-3.789 0-.979-.016-2.326-.066-4.178-.156-5.529 3.369-10.506 8.568-12.102 28.064-8.619 58.748-9.611 86.398-2.785 7.473 1.842 12.617 8.559 12.508 16.332-.018 1.139-.02 2.037-.016 2.742 2.602.713 4.971 2.17 6.793 4.23 2.656 3.002 3.895 7.021 3.402 11.029-.494 4-3.004 7.77-6.717 10.082-2.418 1.506-4.941 2.252-7.523 2.152-5.441 18.932-20.053 34.176-38.902 40.287l-1.779.576c-3.385 1.097-6.824 1.648-10.219 1.648zm-45.58-51.064c.693 0 1.381.18 1.994.533.994.57 1.693 1.541 1.924 2.664 3.738 18.232 17.049 33.096 34.736 38.791 4.568 1.469 9.783 1.404 14.68-.182l1.779-.576c17.379-5.633 30.598-20.242 34.496-38.125.244-1.121.959-2.084 1.961-2.643 1.002-.561 2.197-.658 3.277-.277 1.816.643 3.244.477 4.928-.574 1.68-1.047 2.805-2.643 3.004-4.268.217-1.76-.299-3.447-1.453-4.754-1.141-1.289-2.779-2.027-4.498-2.027-1.07 0-2.137-.449-2.889-1.211-1.311-1.332-1.494-2.527-1.398-9.148.057-4.027-2.584-7.504-6.424-8.451-26.268-6.48-55.432-5.531-82.135 2.668-1.773.545-2.975 2.283-2.92 4.23.229 8.281-.027 9.348-1.32 10.678-.754.775-1.834 1.234-2.914 1.234-1.643 0-3.176.65-4.318 1.834-1.141 1.182-1.736 2.74-1.678 4.391.061 1.703 1.201 3.508 2.975 4.707 1.947 1.314 3.375 1.236 4.918.715.416-.141.846-.209 1.275-.209zm100.618-16.479h.041z" fill="#4c241d"/><circle cx="161.226" cy="136" fill="#4c241d" r="4"/><circle cx="121.226" cy="136" fill="#4c241d" r="4"/><path d="m115.226 102c8.988 10.262 44 36 76 16 0-4-.026-2.277 0-4 .087-5.709-4.049-11.282-9.591-12.652-16.7-4.129-54.409-7.348-66.409.652z" fill="#6b4f5b"/><path d="m165.568 129.482c-25.438 0-47.395-18.047-53.352-24.848-.758-.865-1.107-2.018-.955-3.16.15-1.143.787-2.164 1.746-2.803 14.352-9.562 55.041-4.803 69.588-1.207 7.316 1.809 12.746 8.943 12.631 16.596l-.01 1.041.01 2.898c0 1.379-.711 2.66-1.881 3.393-9.322 5.827-18.769 8.09-27.777 8.09zm-43.343-26.244c11.254 9.779 39.004 27.098 64.994 12.49l-.002-.537.01-1.25c.059-3.896-2.881-7.803-6.553-8.711-16.229-4.013-44.875-6.025-58.449-1.992z" fill="#4c241d"/><path d="m195.226 102h-112v-10c0-29.823 24.177-54 54-54h4c29.823 0 54 24.177 54 54z" fill="#ffce56"/><path d="m195.226 106h-112c-2.209 0-4-1.791-4-4v-10c0-31.98 26.02-58 58-58h4c31.98 0 58 26.02 58 58v10c0 2.209-1.791 4-4 4zm-108-8h104v-6c0-27.57-22.43-50-50-50h-4c-27.57 0-50 22.43-50 50z" fill="#4c241d"/><path d="m95.512 117.907c9.127-2.417 18.205-11.226 24.299-18.321-6.498 1.177-12.915 2.704-19.176 4.633-3.201.986-5.29 4.061-5.189 7.409.066 2.214.111 4.618.066 6.279z" fill="#6b4f5b"/><path d="m95.512 121.906c-.891 0-1.768-.299-2.482-.863-.988-.783-1.551-1.984-1.516-3.244.043-1.602-.002-3.918-.066-6.053-.154-5.182 3.139-9.85 8.01-11.35 6.217-1.914 12.824-3.512 19.641-4.746 1.646-.303 3.342.475 4.184 1.947.842 1.469.668 3.311-.436 4.594-6.398 7.449-16.154 16.893-26.311 19.582-.339.09-.683.133-1.024.133zm11.898-15.468c-1.898.506-3.768 1.041-5.598 1.604-1.441.445-2.416 1.871-2.369 3.467.006.168.01.336.016.506 2.521-1.353 5.193-3.228 7.951-5.577z" fill="#4c241d"/><path d="m191.226 110h-104c-4.418 0-8-3.582-8-8 0-4.418 3.582-8 8-8h104c4.418 0 8 3.582 8 8 0 4.418-3.581 8-8 8z" fill="#fc8c29"/><path d="m191.226 114h-104c-6.617 0-12-5.383-12-12s5.383-12 12-12h104c6.617 0 12 5.383 12 12s-5.382 12-12 12zm-104-16c-2.205 0-4 1.795-4 4s1.795 4 4 4h104c2.205 0 4-1.795 4-4s-1.795-4-4-4z" fill="#4c241d"/><path d="m134.525 85.986c-1.01 0-2.021-.381-2.799-1.143-1.578-1.547-1.604-4.08-.059-5.656l5.277-5.385-4.857-.158c-1.516-.049-2.871-.949-3.506-2.326-.633-1.377-.434-2.992.514-4.174l10.92-13.617c1.383-1.723 3.904-1.998 5.623-.619 1.725 1.383 2 3.9.619 5.623l-5.916 7.377 5.961.193c1.588.051 2.992 1.035 3.584 2.508.59 1.475.254 3.156-.855 4.289l-11.648 11.887c-.783.801-1.821 1.201-2.858 1.201z" fill="#4c241d"/><path d="m247.311 51.984-25.932 40.338h14.407l-11.525 31.694 28.813-40.338h-11.526z" fill="#fc8c29"/><path d="m224.258 128.016c-.631 0-1.27-.148-1.861-.461-1.77-.932-2.58-3.027-1.896-4.906l9.574-26.326h-8.695c-1.463 0-2.811-.799-3.512-2.084-.701-1.283-.645-2.848.146-4.078l25.932-40.338c1.031-1.609 3.051-2.268 4.832-1.559 1.777.699 2.811 2.559 2.469 4.436l-4.904 26.979h6.732c1.498 0 2.871.838 3.557 2.17s.568 2.936-.303 4.154l-28.814 40.338c-.775 1.083-2.001 1.675-3.257 1.675zm4.447-39.694h7.08c1.305 0 2.527.637 3.275 1.705.75 1.068.93 2.436.484 3.662l-1.518 4.17 7.273-10.182h-3.752c-1.186 0-2.311-.527-3.07-1.438s-1.078-2.111-.865-3.277l2.154-11.848z" fill="#4c241d"/><path d="m72.209 165.934c0-11.27-9.394-20.405-20.982-20.405s-20.982 9.136-20.982 20.405c0 6.029 2.695 11.436 6.973 15.167 2.432 2.122 3.78 5.23 4.12 8.44l.896 8.459h17.985l.897-8.459c.34-3.21 1.688-6.318 4.12-8.44 4.277-3.731 6.973-9.138 6.973-15.167z" fill="#ffec95"/><path d="m60.219 202h-17.985c-2.047 0-3.762-1.543-3.979-3.578l-.896-8.459c-.258-2.438-1.244-4.514-2.771-5.848-5.303-4.623-8.344-11.25-8.344-18.182 0-13.457 11.207-24.404 24.982-24.404s24.982 10.947 24.982 24.404c0 6.932-3.041 13.559-8.344 18.182-1.527 1.334-2.514 3.41-2.773 5.85l-.895 8.457c-.216 2.035-1.93 3.578-3.977 3.578zm-14.387-8h10.789l.516-4.881c.475-4.451 2.418-8.369 5.471-11.031 3.561-3.105 5.602-7.535 5.602-12.154 0-9.045-7.619-16.404-16.982-16.404s-16.982 7.359-16.982 16.404c0 4.619 2.041 9.049 5.602 12.154 3.053 2.662 4.996 6.58 5.469 11.029z" fill="#4c241d"/><path d="m51.226 214c-4.418 0-8-3.582-8-8v-8h16v8c0 4.418-3.581 8-8 8z" fill="#6b4f5b"/><path d="m51.226 218c-6.617 0-12-5.383-12-12v-8c0-2.209 1.791-4 4-4h16c2.209 0 4 1.791 4 4v8c0 6.617-5.382 12-12 12zm-4-16v4c0 2.205 1.795 4 4 4s4-1.795 4-4v-4z" fill="#4c241d"/><path d="m247.227 270c-6.627 0-12-5.373-12-12v-48h24v48c-.001 6.627-5.373 12-12 12z" fill="#9dc1e4"/><path d="m247.226 274c-8.822 0-16-7.178-16-16v-48c0-2.209 1.791-4 4-4h24c2.209 0 4 1.791 4 4v48c0 8.822-7.177 16-16 16zm-8-60v44c0 4.412 3.588 8 8 8s8-3.588 8-8v-44z" fill="#4c241d"/><path d="m247.226 214c-2.209 0-4-1.791-4-4v-44c0-2.209 1.791-4 4-4s4 1.791 4 4v44c0 2.209-1.791 4-4 4z" fill="#4c241d"/><path d="m243.226 138h8l8 20-11.945 11.946-12.055-11.946z" fill="#b5a19c"/><g fill="#4c241d"><path d="m247.281 173.945c-1.018 0-2.035-.387-2.816-1.158l-12.055-11.945c-1.141-1.131-1.494-2.836-.898-4.328l8-20c.609-1.518 2.08-2.514 3.715-2.514h8c1.635 0 3.105.996 3.715 2.514l8 20c.594 1.486.244 3.184-.887 4.314l-11.945 11.945c-.782.782-1.805 1.172-2.829 1.172zm-7.355-16.92 7.342 7.275 7.266-7.264-6.016-15.036h-2.582z"/><path d="m51.226 198c-2.209 0-4-1.791-4-4v-17.305l-7.018-8.07c-1.451-1.668-1.273-4.193.393-5.643 1.67-1.453 4.193-1.273 5.643.393l8 9.199c.633.729.982 1.66.982 2.625v18.801c0 2.209-1.791 4-4 4z"/><path d="m51.226 178c-1.023 0-2.047-.391-2.828-1.172-1.562-1.562-1.562-4.094 0-5.656l8-8c1.562-1.562 4.094-1.562 5.656 0s1.562 4.094 0 5.656l-8 8c-.781.781-1.804 1.172-2.828 1.172z"/><path d="m95.226 274c-2.209 0-4-1.791-4-4v-20c0-2.209 1.791-4 4-4s4 1.791 4 4v20c0 2.209-1.791 4-4 4z"/><path d="m187.226 274c-2.209 0-4-1.791-4-4v-20c0-2.209 1.791-4 4-4s4 1.791 4 4v20c0 2.209-1.791 4-4 4z"/></g><path d="m155.104 187.217c-.632 8.258-7.458 14.783-15.877 14.783l20 28 14.524-34.307z" fill="#ffce56"/><path d="m159.226 234c-1.283 0-2.5-.617-3.256-1.676l-20-28c-.869-1.219-.986-2.822-.301-4.154s2.059-2.17 3.557-2.17c6.191 0 11.414-4.871 11.889-11.088.1-1.303.828-2.475 1.953-3.139 1.123-.664 2.498-.74 3.691-.197l18.646 8.477c1.973.896 2.873 3.203 2.027 5.199l-14.523 34.307c-.564 1.334-1.805 2.258-3.244 2.418-.147.015-.294.023-.439.023zm-13.117-29.246 12.219 17.107 10.219-24.139-10.627-4.832c-2.026 5.487-6.387 9.837-11.811 11.864z" fill="#4c241d"/><path d="m139.226 202c-8.42 0-15.245-6.525-15.877-14.783l-18.647 8.476 14.524 34.307z" fill="#ffce56"/><path d="m119.226 234c-.145 0-.291-.008-.439-.023-1.439-.16-2.68-1.084-3.244-2.418l-14.523-34.307c-.846-1.996.055-4.303 2.027-5.199l18.646-8.477c1.189-.545 2.57-.467 3.691.197 1.125.664 1.854 1.836 1.953 3.139.475 6.217 5.697 11.088 11.889 11.088 1.498 0 2.871.838 3.557 2.17s.568 2.936-.301 4.154l-20 28c-.756 1.059-1.972 1.676-3.256 1.676zm-9.32-36.277 10.219 24.139 12.219-17.107c-5.424-2.027-9.785-6.377-11.811-11.863z" fill="#4c241d"/><path d="m175.226 250h-20c-2.209 0-4-1.791-4-4s1.791-4 4-4h20c2.209 0 4 1.791 4 4s-1.791 4-4 4z" fill="#4c241d"/><path d="m139.226 274c-2.209 0-4-1.791-4-4v-68c0-2.209 1.791-4 4-4s4 1.791 4 4v68c0 2.209-1.791 4-4 4z" fill="#4c241d"/></svg>