<svg id="Layer_1_1_" enable-background="new 0 0 64 64" height="512" viewBox="0 0 64 64" width="512" xmlns="http://www.w3.org/2000/svg"><path d="m53.19 52.81s-2.932-31.543-4.24-36.775c-1.548-6.19-5-11.59-11.692-12.807-.837-.152-9.68-.152-10.517 0-2.957.538-5.281 1.893-7.088 3.772 0 0-4.653 5-5.599 14-.686 6.526-1.087 13.103-1.661 19.634-.358 4.071-.889 8.15-1.583 12.177-.32 1.86-1.072 6.684-2.81 7.736h48.213c-1.738-1.052-2.703-5.877-3.023-7.737z" fill="#634627"/><path d="m31.5 7c7.253 0 13.701 4.276 17.815 10.907-.131-.784-.254-1.428-.365-1.871-1.548-6.19-5-11.59-11.692-12.807-.837-.152-9.68-.152-10.517 0-2.957.537-5.281 1.892-7.088 3.771 0 0-2.9 3.134-4.586 8.884 4.106-5.464 9.947-8.884 16.433-8.884z" fill="#634627"/><path d="m46 27h-28s-1.571 3.5 2 16c2 7-1 11-5 14-1.709 1.282-6.473 4.214-6.473 4.214h47.473s-9-2.214-11-5.214-3-10 1-29z" fill="#5c3d1d"/><path d="m60 62c0-1.119-.88-2.04-1.998-2.09l-11.014-.499c-3.924-.231-6.988-3.48-6.988-7.411v-13h-16v13c0 3.931-3.064 7.18-6.988 7.411l-11.014.499c-1.118.05-1.998.971-1.998 2.09z" fill="#fbc188"/><path d="m32 16.186c-3 5.656-14.999 10.295-15 10.296-.551.213 3.526 13.226 4.08 14.42 2.246 4.835 5.957 8.098 10.92 8.098 11 0 12.206-13.932 14.753-22.633 0 0-11.152-16.971-14.753-10.181z" fill="#fbc997"/><g fill="#fc984a"><path d="m12.172 9.828c1.562-1.562 1.562-4.095 0-5.657l-1.172-1.171-1.172 1.172c-1.562 1.562-1.562 4.095 0 5.657l1.172 1.171z"/><path d="m9.828 12.172c-1.562 1.562-1.562 4.095 0 5.657l1.172 1.171 1.172-1.172c1.562-1.562 1.562-4.095 0-5.657l-1.172-1.171z"/><path d="m9.828 12.172 1.172-1.172-1.172-1.172c-1.562-1.562-4.095-1.562-5.657 0l-1.171 1.172 1.172 1.172c1.562 1.562 4.094 1.562 5.656 0z"/><path d="m12.172 12.172c1.562 1.562 4.095 1.562 5.657 0l1.171-1.172-1.172-1.172c-1.562-1.562-4.095-1.562-5.657 0l-1.171 1.172z"/><path d="m55.172 39.828c1.562-1.562 1.562-4.095 0-5.657l-1.172-1.171-1.172 1.172c-1.562 1.562-1.562 4.095 0 5.657l1.172 1.171z"/><path d="m52.828 42.172c-1.562 1.562-1.562 4.095 0 5.657l1.172 1.171 1.172-1.172c1.562-1.562 1.562-4.095 0-5.657l-1.172-1.171z"/><path d="m52.828 39.828c-1.562-1.562-4.095-1.562-5.657 0l-1.171 1.172 1.172 1.172c1.562 1.562 4.095 1.562 5.657 0l1.171-1.172z"/><path d="m55.172 39.828-1.172 1.172 1.172 1.172c1.562 1.562 4.095 1.562 5.657 0l1.171-1.172-1.172-1.172c-1.562-1.562-4.094-1.562-5.656 0z"/><path d="m52 2h2v2h-2z"/><path d="m54 4h2v2h-2z"/><path d="m50 4h2v2h-2z"/><path d="m52 6h2v2h-2z"/><path d="m4 25h2v2h-2z"/><path d="m6 27h2v2h-2z"/><path d="m2 27h2v2h-2z"/><path d="m4 29h2v2h-2z"/><path d="m58 12h2v2h-2z"/><path d="m60 14h2v2h-2z"/><path d="m56 14h2v2h-2z"/><path d="m58 16h2v2h-2z"/></g><circle cx="54" cy="41" fill="#fff" r="1"/><circle cx="11" cy="11" fill="#fff" r="1"/><path d="m28 41h8v1c0 1.657-1.791 3-4 3-2.209 0-4-1.343-4-3z" fill="#ffb484"/><path d="m29.263 31.21c-.29-.247-.744-.272-1.08-.072-.633.376-1.773.899-3.215.899-1.431 0-2.578-.527-3.216-.903-.336-.198-.787-.172-1.077.074l-.063.054c-.365.311-.32.826.102 1.079.003.002.007.004.01.006-.14.093-.32.179-.56.241-.887.229-1.34.229-1.34.229s1.634.25 2.401-.197c.177.09.369.179.578.267-.073.05-.154.099-.248.146-.803.394-1.244.482-1.244.482s1.234-.055 1.976-.444c.253.088.522.169.81.237-.086.063-.184.124-.301.182-.851.417-1.318.51-1.318.51s1.511-.066 2.261-.568c.387.06.796.099 1.228.099 1.914 0 3.412-.686 4.254-1.191.422-.253.467-.769.102-1.079z" fill="#a67112"/><path d="m45 32.816s-.453 0-1.34-.229c-.2-.052-.356-.121-.486-.196.029-.017.063-.035.09-.051.422-.253.467-.769.102-1.079l-.06-.051c-.29-.247-.744-.272-1.08-.072-.633.376-1.773.899-3.215.899-1.431 0-2.579-.527-3.218-.904-.337-.199-.789-.172-1.078.075l-.063.054c-.363.311-.318.826.103 1.078.842.505 2.34 1.192 4.255 1.192.386 0 .75-.034 1.1-.082.759.485 2.235.55 2.235.55s-.467-.093-1.317-.511c-.102-.05-.19-.103-.268-.157.297-.066.579-.142.841-.23.747.36 1.911.411 1.911.411s-.441-.088-1.244-.482c-.07-.034-.125-.071-.183-.107.216-.087.411-.178.594-.269.795.39 2.321.161 2.321.161z" fill="#a67112"/></svg>