<svg id="icon" height="512" viewBox="0 0 128 128" width="512" xmlns="http://www.w3.org/2000/svg"><path d="m92.792 85.408-22.085-26.548-30.762-24-26.31 13.769s3.753 10.86 6.437 21.408 33.328 32.938 38.615 36.044 8.295-2.343 8.295-2.343c7.234 3.872 9.85-3.448 9.85-3.448 7.692 2.165 8.768-6.045 8.768-6.045 4.533 1.743 6.818.119 7.97-1.941a6.162 6.162 0 0 0 -.778-6.896z" fill="#e8c79c"/><path d="m93.568 92.3c-1.146 2.062-3.439 3.683-7.965 1.938 0 0-1.076 8.212-8.769 6.052 0 0-2.615 7.319-9.851 3.44 0 0-3.01 5.45-8.3 2.345s-35.925-25.493-38.613-36.041c-.418-1.652-.863-3.3-1.314-4.925 4.927 11.044 33.027 31.542 38.071 34.5 5.29 3.105 8.291-2.344 8.291-2.344 7.236 3.879 9.85-3.448 9.85-3.448 7.694 2.169 8.77-6.044 8.77-6.044 4.535 1.744 6.819.124 7.974-1.939a5.461 5.461 0 0 0 .477-1.151l.6.726a6.152 6.152 0 0 1 .779 6.891z" fill="#d0aa79"/><path d="m61.856 108.04a7.247 7.247 0 0 1 -3.676-1.1c-4.791-2.814-36.21-25.392-39.077-36.66-2.643-10.38-6.376-21.216-6.414-21.324a1 1 0 0 1 .481-1.212l26.311-13.772a1 1 0 0 1 1.079.1l30.762 24a1 1 0 0 1 .153.149l22.086 26.548a7.175 7.175 0 0 1 .882 8.024c-.95 1.7-3.229 4.19-8.106 2.758a8.836 8.836 0 0 1 -3.354 5.031 7.186 7.186 0 0 1 -5.58.875 8.229 8.229 0 0 1 -4.135 3.983 7.54 7.54 0 0 1 -5.945-.42 7.643 7.643 0 0 1 -3.9 2.808 5.874 5.874 0 0 1 -1.567.212zm-47-58.922c.921 2.729 3.941 11.858 6.184 20.673 2.541 9.981 32.578 32.154 38.153 35.428a4.725 4.725 0 0 0 3.681.685 6.1 6.1 0 0 0 3.232-2.651 1.006 1.006 0 0 1 1.346-.4 6.082 6.082 0 0 0 5.083.723 6.71 6.71 0 0 0 3.355-3.628 1 1 0 0 1 1.211-.623 5.65 5.65 0 0 0 4.77-.409c2.262-1.484 2.731-4.772 2.736-4.806a1 1 0 0 1 1.35-.8c3.272 1.257 5.474.768 6.738-1.5a5.165 5.165 0 0 0 -.673-5.769l-22.015-26.459-30.169-23.539z" fill="#2f3a5a"/><path d="m89.766 36.382-23.583 8.512-15.205-.718a5.975 5.975 0 0 0 -4.968 2.261l-7.871 9.949a2.843 2.843 0 0 0 1.086 4.367 12.816 12.816 0 0 0 13.838-2.307l1.019-.939 16.625 1.353 21.722 25.6 12-11.523 5.8-9.725z" fill="#e8c79c"/><path d="m110.22 63.213-5.795 9.72-12 11.524-21.715-25.6-16.631-1.346-1.014.936a12.816 12.816 0 0 1 -13.836 2.311 2.843 2.843 0 0 1 -1.091-4.367l.627-.791a12.684 12.684 0 0 0 5.972.856 12.83 12.83 0 0 0 7.447-3.332l1.013-.945 16.624 1.358 21.724 25.6 12-11.524 4.4-7.385z" fill="#d0aa79"/><path d="m92.429 85.459h-.051a1 1 0 0 1 -.712-.352l-21.453-25.284-15.775-1.282-.7.642a13.819 13.819 0 0 1 -14.915 2.487 3.843 3.843 0 0 1 -1.468-5.9l7.871-9.949a7.03 7.03 0 0 1 5.8-2.64l15.007.708 23.4-8.444a1 1 0 0 1 1.135.334l20.447 26.821a1 1 0 0 1 .064 1.118l-5.795 9.726a1 1 0 0 1 -.167.209l-12 11.523a1 1 0 0 1 -.688.283zm-38.347-28.95h.081l16.625 1.351a1 1 0 0 1 .682.35l21.03 24.79 11.132-10.693 5.38-9.029-19.6-25.708-22.889 8.264a1.07 1.07 0 0 1 -.387.059l-15.206-.718a4.939 4.939 0 0 0 -4.136 1.882l-7.871 9.95a1.843 1.843 0 0 0 .7 2.832 11.818 11.818 0 0 0 12.758-2.126l1.019-.939a1 1 0 0 1 .682-.265z" fill="#2f3a5a"/><path d="m85.6 94.246-8.81-10.694" fill="#9297ab"/><path d="m85.6 95.246a1 1 0 0 1 -.772-.364l-8.81-10.694a1 1 0 1 1 1.543-1.271l8.81 10.694a1 1 0 0 1 -.771 1.636z" fill="#2f3a5a"/><path d="m76.832 100.29-7.293-9.258" fill="#9297ab"/><path d="m76.833 101.291a1 1 0 0 1 -.786-.381l-7.293-9.258a1 1 0 1 1 1.57-1.237l7.293 9.258a1 1 0 0 1 -.784 1.619z" fill="#2f3a5a"/><path d="m66.982 103.738-6.466-7.064" fill="#9297ab"/><path d="m66.981 104.738a1 1 0 0 1 -.737-.325l-6.465-7.064a1 1 0 1 1 1.475-1.349l6.465 7.064a1 1 0 0 1 -.737 1.675z" fill="#2f3a5a"/><path d="m31.3 81.377-2.84 3.447a4.13 4.13 0 1 0 6.376 5.25l2.839-3.447a4.13 4.13 0 0 0 -6.376-5.25z" fill="#d0aa79"/><path d="m31.643 92.577a5.128 5.128 0 0 1 -3.954-8.389l2.839-3.447a5.13 5.13 0 0 1 7.92 6.522l-2.84 3.447a5.122 5.122 0 0 1 -3.965 1.867zm2.85-11.705q-.154 0-.308.015a3.1 3.1 0 0 0 -2.113 1.125l-2.841 3.448a3.13 3.13 0 0 0 4.833 3.979l2.836-3.447a3.131 3.131 0 0 0 -2.411-5.12z" fill="#2f3a5a"/><path d="m37.675 86.628-2.839 3.447a4.13 4.13 0 1 0 6.376 5.25l2.839-3.447a4.13 4.13 0 0 0 -6.376-5.25z" fill="#d0aa79"/><path d="m38.019 97.828a5.128 5.128 0 0 1 -3.954-8.389l2.835-3.447a5.129 5.129 0 1 1 7.919 6.522l-2.839 3.447a5.122 5.122 0 0 1 -3.961 1.867zm2.85-11.7q-.152 0-.308.015a3.106 3.106 0 0 0 -2.113 1.125l-2.841 3.442a3.13 3.13 0 0 0 4.833 3.979l2.839-3.447a3.13 3.13 0 0 0 -2.411-5.119z" fill="#2f3a5a"/><path d="m44.051 91.878-2.839 3.447a4.13 4.13 0 1 0 6.376 5.25l2.839-3.447a4.13 4.13 0 0 0 -6.376-5.25z" fill="#d0aa79"/><path d="m44.391 103.081a5.13 5.13 0 0 1 -3.95-8.392l2.839-3.447a5.129 5.129 0 1 1 7.92 6.522l-2.839 3.447a5.094 5.094 0 0 1 -3.465 1.845q-.255.025-.505.025zm.432-10.567-2.839 3.447a3.13 3.13 0 0 0 4.832 3.979l2.84-3.448a3.13 3.13 0 0 0 -4.833-3.979z" fill="#2f3a5a"/><path d="m50.145 97.471-2.275 2.763a3.31 3.31 0 1 0 5.111 4.209l2.275-2.763a3.31 3.31 0 0 0 -5.111-4.209z" fill="#d0aa79"/><path d="m50.417 106.649a4.31 4.31 0 0 1 -3.317-7.049l2.275-2.763a4.31 4.31 0 1 1 6.653 5.48l-2.275 2.763a4.28 4.28 0 0 1 -2.911 1.55c-.142.013-.284.019-.425.019zm2.288-9.385c-.075 0-.151 0-.227.011a2.293 2.293 0 0 0 -1.561.831l-2.275 2.763a2.31 2.31 0 1 0 3.566 2.937l2.276-2.763a2.311 2.311 0 0 0 -1.779-3.779z" fill="#2f3a5a"/><rect fill="#9297ab" height="41.276" rx="3.405" transform="matrix(.814 -.581 .581 .814 -5.848 70.327)" width="23.404" x="95.126" y="23.651"/><path d="m110.1 67.542a4.5 4.5 0 0 1 -.733-.061 4.376 4.376 0 0 1 -2.86-1.785l-20.03-28.05a4.4 4.4 0 0 1 1.023-6.146l13.5-9.643a4.4 4.4 0 0 1 6.144 1.025l20.03 28.05a4.405 4.405 0 0 1 -1.025 6.145l-13.5 9.643a4.374 4.374 0 0 1 -2.549.822zm-6.539-44.5a2.387 2.387 0 0 0 -1.393.449l-13.5 9.643a2.4 2.4 0 0 0 -.56 3.354l20.029 28.05a2.406 2.406 0 0 0 3.355.559l13.5-9.643a2.406 2.406 0 0 0 .561-3.354l-20.03-28.05a2.39 2.39 0 0 0 -1.562-.974 2.417 2.417 0 0 0 -.4-.038z" fill="#2f3a5a"/><rect fill="#9297ab" height="23.404" rx="3.405" transform="matrix(.708 -.706 .706 .708 -23.388 28.242)" width="41.276" x="1.828" y="30.708"/><path d="m16.122 64.856a4.391 4.391 0 0 1 -3.122-1.292l-11.714-11.751a4.4 4.4 0 0 1 .009-6.229l24.405-24.336a4.409 4.409 0 0 1 6.229.009l11.717 11.75a4.4 4.4 0 0 1 -.009 6.229l-24.405 24.337a4.393 4.393 0 0 1 -3.11 1.283zm12.69-42.893a2.4 2.4 0 0 0 -1.7.7l-24.405 24.337a2.4 2.4 0 0 0 0 3.4l11.717 11.75a2.408 2.408 0 0 0 3.4 0l24.403-24.33a2.4 2.4 0 0 0 0-3.4l-11.712-11.752a2.4 2.4 0 0 0 -1.703-.705z" fill="#2f3a5a"/></svg>