<svg id="Layer_1" enable-background="new 0 0 256 256" height="512" viewBox="0 0 256 256" width="512" xmlns="http://www.w3.org/2000/svg"><path d="m181.699 237.2v-88.548c0-19.762-16.017-35.78-35.779-35.78h-76.289c-19.761 0-35.778 16.018-35.778 35.78v88.548z" fill="#14a2ff"/><path d="m148.322 77.237c0 19.762-16.016 35.779-35.777 35.779h-9.544c-19.762 0-35.771-16.017-35.771-35.779v-22.509c0-19.76 16.009-35.778 35.771-35.778h9.544c19.762 0 35.777 16.018 35.777 35.778z" fill="#f19d69"/><path d="m112.545 18.95h-9.544c-.35 0-.684.045-1.041.053 19.28.56 34.735 16.318 34.735 35.725v22.509c0 19.408-15.455 35.169-34.735 35.728.357.01.691.051 1.041.051h9.544c19.762 0 35.777-16.017 35.777-35.779v-22.509c0-19.76-16.015-35.778-35.777-35.778z" fill="#f9b28a"/><path d="m107.781 18.95c0-.051-.009-.099-.009-.149 0 .051-.008.099-.008.149z" fill="none"/><path d="m33.852 171.608h29.181v65.592h-29.181z" fill="#f9b28a"/><path d="m33.852 171.608h11.299v65.592h-11.299z" fill="#f19d69"/><path d="m152.519 171.608h29.181v65.592h-29.181z" fill="#f9b28a"/><path d="m152.519 171.608h11.897v65.592h-11.897z" fill="#f19d69"/><path d="m148.322 59.941v-5.213c0-19.76-16.016-35.778-35.777-35.778h-9.544c-19.762 0-35.771 16.018-35.771 35.778v5.213z" fill="#7d50c7"/><path d="m71.769 59.941c3.209 7.617 13.35 13.188 25.396 13.188h21.224c12.044 0 22.186-5.571 25.395-13.188z" fill="#7d50c7"/><path d="m81.661 59.941h65.519c-.107-3.758-3.163-6.779-6.947-6.779h-63.024c.816-18.965 16.358-34.107 35.514-34.203-.062 0-.117-.01-.178-.01h-9.544c-19.762 0-35.771 16.018-35.771 35.778v5.213h.016 4.522c3.209 7.617 13.35 13.188 25.396 13.188h9.893c-12.038.001-22.187-5.57-25.396-13.187z" fill="#603da3"/><path d="m148.322 61.73h-81.092c-.988 0-1.789-.801-1.789-1.789v-5.213c0-20.714 16.85-37.567 37.56-37.567h9.544c20.714 0 37.566 16.853 37.566 37.567v5.213c0 .988-.8 1.789-1.789 1.789zm-79.302-3.578h77.514v-3.424c0-18.742-15.247-33.989-33.988-33.989h-9.544c-18.737 0-33.981 15.247-33.981 33.989v3.424z" fill="#24202b"/><path d="m118.389 74.918h-21.224c-12.577 0-23.446-5.74-27.045-14.283-.233-.552-.174-1.185.158-1.684.331-.5.891-.8 1.49-.8h72.015c.6 0 1.159.3 1.49.8.332.499.392 1.131.158 1.684-3.598 8.543-14.466 14.283-27.042 14.283zm-43.597-13.188c4.004 5.767 12.719 9.61 22.373 9.61h21.224c9.653 0 18.367-3.843 22.371-9.61z" fill="#24202b"/><path d="m147.592 52.94h-80.362c-.988 0-1.789-.801-1.789-1.789s.801-1.789 1.789-1.789h80.361c.988 0 1.789.801 1.789 1.789s-.8 1.789-1.788 1.789z" fill="#24202b"/><path d="m145.92 112.872h-18.472v.154l-19.094 14.978-.573 3.528-.584-3.528-19.102-14.988v-.144h-18.464c-19.761 0-35.778 16.018-35.778 35.78v22.956h29.181v65.592h89.485v-65.592h29.181v-22.956c-.001-19.762-16.017-35.78-35.78-35.78z" fill="#7d50c7"/><path d="m107.197 128.004.584 3.528.573-3.528 11.728-9.201v-6.612c-2.426.531-4.949.824-7.537.824h-9.544c-5.323 0-10.358-1.195-14.905-3.283v3.139.144z" fill="#f19d69"/><path d="m120.082 112.191c2.572-.56 5.035-1.387 7.366-2.459-2.331 1.073-4.802 1.9-7.366 2.459z" fill="#f9b28a"/><path d="m127.448 113.025v-.154-3.139c-2.331 1.072-4.794 1.899-7.366 2.459v6.612z" fill="#f9b28a"/><path d="m145.92 112.872h-3.769v21.948c0 18.984-15.394 34.376-34.379 34.376-18.979 0-34.371-15.391-34.371-34.376v-21.948h-3.771c-2.26 0-4.461.235-6.598.633v58.103 65.592h89.485v-65.592-58.103c-2.144-.398-4.343-.633-6.597-.633z" fill="none"/><path d="m88.096 113.016v-.144h-18.465c-19.761 0-35.778 16.018-35.778 35.78v11.796c0-19.762 16.018-35.778 35.778-35.778h18.465v.147l4.166 3.264-5.254-9.278z" fill="#603da3"/><path d="m145.92 112.872h-18.472v.154l-.038.03 1.08 5.748-5.3 9.364 4.258-3.342v-.155h18.472c19.763 0 35.779 16.016 35.779 35.778v-11.796c0-19.763-16.016-35.781-35.779-35.781z" fill="#603da3"/><path d="m127.41 113.056-.008-.04-19.102 14.988.048.047.006-.047z" fill="#603da3"/><path d="m87.008 118.803 5.254 9.279 5.476 9.674 2.963-3.053 6.496-6.699-19.101-14.988z" fill="#603da3"/><path d="m127.41 113.056-19.056 14.948-.006.047 6.473 6.679 2.937 3.026 5.432-9.588 5.3-9.365z" fill="#603da3"/><path d="m181.699 238.989h-147.846c-.988 0-1.789-.801-1.789-1.789v-88.548c0-20.716 16.853-37.569 37.567-37.569h18.465c.988 0 1.789.801 1.789 1.789s-.801 1.789-1.789 1.789h-18.465c-18.742 0-33.989 15.249-33.989 33.991v86.759h144.268v-63.803c0-.988.801-1.789 1.789-1.789s1.789.801 1.789 1.789v65.592c0 .988-.8 1.789-1.789 1.789z" fill="#24202b"/><path d="m145.92 112.872h-3.769v21.948c0 18.984-15.394 34.376-34.379 34.376-18.979 0-34.371-15.391-34.371-34.376v-21.948h-3.771c-2.26 0-4.461.235-6.598.633v58.103 65.592h89.485v-65.592-58.103c-2.144-.398-4.343-.633-6.597-.633z" fill="#eee"/><g fill="#24202b"><path d="m152.519 238.989h-89.486c-.988 0-1.789-.801-1.789-1.789v-123.695c0-.862.614-1.601 1.462-1.759 2.363-.44 4.693-.664 6.925-.664h3.771c.988 0 1.789.801 1.789 1.789v21.948c0 17.968 14.616 32.586 32.582 32.586 17.97 0 32.59-14.618 32.59-32.586v-21.948c0-.988.801-1.789 1.789-1.789h3.769c2.253 0 4.519.217 6.925.664.848.157 1.463.896 1.463 1.759v123.695c-.001.988-.802 1.789-1.79 1.789zm-87.697-3.578h85.907v-120.39c-1.651-.242-3.236-.36-4.81-.36h-1.979v20.159c0 19.941-16.225 36.165-36.168 36.165-19.938 0-36.16-16.223-36.16-36.165v-20.159h-1.981c-1.578 0-3.163.118-4.809.359z"/><path d="m107.781 133.321c-.875 0-1.622-.633-1.765-1.497l-.471-2.842-18.555-14.559c-.432-.339-.685-.858-.685-1.407v-3.283c0-.609.311-1.177.823-1.506.514-.33 1.16-.374 1.712-.12 4.509 2.07 9.272 3.12 14.159 3.12h9.544c2.373 0 4.78-.263 7.154-.783h.001c2.426-.529 4.781-1.315 7-2.336.554-.255 1.2-.21 1.713.119.514.329.824.896.824 1.506v3.293c0 .549-.253 1.068-.685 1.408l-18.544 14.547-.462 2.838c-.141.865-.887 1.5-1.763 1.502.002 0 .001 0 0 0zm-17.251-20.669 17.246 13.532 17.271-13.549c-1.492.528-3.025.964-4.583 1.304-2.625.574-5.29.866-7.92.866h-9.544c-4.267 0-8.447-.723-12.47-2.153z"/><path d="m112.545 114.805h-9.544c-20.71 0-37.56-16.853-37.56-37.568v-22.509c0-20.714 16.85-37.567 37.56-37.567h9.544c20.714 0 37.566 16.853 37.566 37.567v22.509c0 20.715-16.852 37.568-37.566 37.568zm-9.544-94.066c-18.737 0-33.981 15.247-33.981 33.989v22.509c0 18.742 15.244 33.99 33.981 33.99h9.544c18.741 0 33.988-15.248 33.988-33.99v-22.509c0-18.742-15.247-33.989-33.988-33.989z"/><path d="m97.738 139.545c-.075 0-.151-.005-.228-.015-.559-.072-1.052-.402-1.329-.893l-10.73-18.953c-.208-.368-.279-.797-.201-1.212l1.088-5.788c.182-.971 1.116-1.611 2.088-1.428s1.61 1.118 1.428 2.089l-.967 5.145 9.231 16.305 7.795-8.037c.688-.71 1.822-.725 2.529-.039.71.688.727 1.82.039 2.53l-9.459 9.752c-.338.351-.803.544-1.284.544z"/><path d="m117.789 139.545c-.48 0-.944-.194-1.284-.543l-9.464-9.752c-.688-.709-.671-1.842.038-2.53.708-.688 1.84-.672 2.53.038l7.8 8.039 9.233-16.306-.967-5.145c-.183-.971.456-1.906 1.428-2.089.97-.184 1.905.457 2.088 1.428l1.088 5.788c.078.415.007.845-.201 1.212l-10.732 18.953c-.277.491-.771.821-1.329.893-.077.01-.153.014-.228.014z"/><path d="m107.781 170.894c-.988 0-1.789-.801-1.789-1.789v-37.573c0-.988.801-1.789 1.789-1.789s1.789.801 1.789 1.789v37.573c0 .988-.8 1.789-1.789 1.789z"/></g><path d="m212.9 69.106-6.792 9.834v-9.834h-16.342l-7.694 9.834v-9.834h-18.728v9.834l-5.184-9.834h-9.387l6.636 31.231h61.423l5.316-31.231z" fill="#e8c205"/><path d="m181.101 69.106h-7.694v9.834z" fill="#ffdc00"/><path d="m204.235 69.106h-6.784v9.834z" fill="#ffdc00"/><path d="m154.679 69.106h-5.185l5.185 9.834z" fill="#ffdc00"/><path d="m213.482 69.106-5.307 31.231h8.657l5.316-31.231z" fill="#ffdc00"/><path d="m182.072 117.342h8.105v119.857h-8.105z" fill="#c2cbe8"/><path d="m190.178 238.989h-8.105c-.988 0-1.789-.801-1.789-1.789v-119.858c0-.988.801-1.789 1.789-1.789h8.105c.988 0 1.789.801 1.789 1.789v119.858c0 .988-.801 1.789-1.789 1.789zm-6.317-3.578h4.527v-116.28h-4.527z" fill="#24202b"/><path d="m173.92 106.896c-.008.053-.016.101-.016.154 0 5.687 4.608 10.293 10.282 10.293h3.869c5.688 0 10.289-4.606 10.289-10.293 0-.053-.017-.101-.017-.154z" fill="#c2cbe8"/><path d="m188.056 119.131h-3.869c-6.656 0-12.071-5.42-12.071-12.082 0-.139.013-.269.033-.406.131-.876.886-1.537 1.771-1.537h24.408c.936 0 1.702.717 1.782 1.632.015.104.023.206.023.311.001 6.662-5.417 12.082-12.077 12.082zm-12.205-10.446c.764 3.909 4.211 6.869 8.336 6.869h3.869c4.128 0 7.578-2.959 8.343-6.869z" fill="#24202b"/><path d="m161.976 106.896h48.297c3.631 0 6.559-2.936 6.559-6.559h-61.423c0 3.623 2.938 6.559 6.567 6.559z" fill="#c2cbe8"/><path d="m210.272 108.685h-48.297c-4.607 0-8.355-3.745-8.355-8.348 0-.988.801-1.789 1.789-1.789h61.423c.988 0 1.789.801 1.789 1.789 0 4.603-3.745 8.348-8.349 8.348zm-52.725-6.559c.71 1.746 2.428 2.98 4.429 2.98h48.297c1.998 0 3.713-1.234 4.423-2.98z" fill="#24202b"/><path d="m216.832 102.126h-61.423c-.845 0-1.574-.591-1.75-1.417l-6.637-31.23c-.112-.528.021-1.079.359-1.498.34-.419.851-.663 1.391-.663h9.388c.664 0 1.273.368 1.583.955l1.812 3.438v-2.603c0-.988.801-1.789 1.789-1.789h18.729c.988 0 1.789.801 1.789 1.789v4.643l4.495-5.746c.339-.433.859-.687 1.409-.687h16.343c.988 0 1.789.801 1.789 1.789v4.095l3.531-5.112c.334-.484.884-.772 1.472-.772h9.247c.527 0 1.027.232 1.367.635.34.402.485.935.396 1.454l-5.315 31.23c-.147.86-.892 1.489-1.764 1.489zm-59.974-3.578h58.464l4.706-27.652h-6.189l-6.259 9.061c-.444.645-1.26.923-2.004.691-.748-.233-1.257-.925-1.257-1.708v-8.044h-13.682l-7.156 9.146c-.472.602-1.272.836-1.992.589-.722-.249-1.206-.928-1.206-1.691v-8.044h-15.15v8.044c0 .823-.561 1.539-1.359 1.737-.801.196-1.629-.175-2.013-.902l-4.68-8.878h-6.1z" fill="#24202b"/><path d="m67.224 55.624h-6.179c-4.399 0-7.958 3.563-7.958 7.958v7.4c0 4.395 3.559 7.958 7.958 7.958h6.179z" fill="#f19d69"/><path d="m69.013 80.729h-7.968c-5.375 0-9.747-4.373-9.747-9.747v-7.4c0-5.375 4.372-9.747 9.747-9.747h7.968zm-7.968-23.316c-3.401 0-6.169 2.768-6.169 6.169v7.4c0 3.401 2.768 6.169 6.169 6.169h4.39v-19.738z" fill="#24202b"/><path d="m148.322 55.624h6.179c4.397 0 7.958 3.563 7.958 7.958v7.4c0 4.395-3.561 7.958-7.958 7.958h-6.179z" fill="#f19d69"/><path d="m154.501 80.729h-7.968v-26.895h7.968c5.375 0 9.747 4.373 9.747 9.747v7.4c0 5.375-4.372 9.748-9.747 9.748zm-4.39-3.579h4.39c3.401 0 6.169-2.768 6.169-6.169v-7.4c0-3.401-2.768-6.169-6.169-6.169h-4.39z" fill="#24202b"/></svg>