<svg id="Layer_1_1_" enable-background="new 0 0 64 64" height="512" viewBox="0 0 64 64" width="512" xmlns="http://www.w3.org/2000/svg"><g><path d="m22 54c0 4.418 3.582 8 8 8s8-3.582 8-8c0-2.319-.993-4.401-2.569-5.862l3.161-6.321c1.361-2.723 4.582-3.947 7.408-2.817l8-37-22.539 44.139c-.474-.087-.961-.139-1.461-.139-4.418 0-8 3.582-8 8zm3 0c0-2.761 2.239-5 5-5s5 2.239 5 5-2.239 5-5 5-5-2.239-5-5z" fill="#858bb5"/><path d="m46 39 4.973-23h-1.355c-.379 0-.725.214-.894.553l-13 26c-.333.665.151 1.447.894 1.447h.882l1.092-2.183c1.361-2.723 4.582-3.947 7.408-2.817z" fill="#9da1bf"/><path d="m54 46c-.5 0-.987.052-1.461.139l-22.539-44.139 8 37c2.826-1.13 6.047.094 7.408 2.817l3.161 6.321c-1.576 1.461-2.569 3.543-2.569 5.862 0 4.418 3.582 8 8 8s8-3.582 8-8-3.582-8-8-8zm0 13c-2.761 0-5-2.239-5-5s2.239-5 5-5 5 2.239 5 5-2.239 5-5 5z" fill="#c8cded"/><path d="m47.611 40.129-13.065-27c-.334-.69-1.033-1.129-1.8-1.129h-.584l5.838 27c2.826-1.13 6.047.094 7.408 2.817l.58 1.16c1.371-.122 2.238-1.576 1.623-2.848z" fill="#e2e7f6"/><path d="m22 54c0 4.418 3.582 8 8 8s8-3.582 8-8-3.582-8-8-8-8 3.582-8 8zm3 0c0-2.761 2.239-5 5-5s5 2.239 5 5-2.239 5-5 5-5-2.239-5-5z" fill="#546ded"/><path d="m18 62h-11c-2.761 0-5-2.239-5-5v-37c0-2.761 2.239-5 5-5h11v4h-10c-1.105 0-2 .895-2 2v35c0 1.105.895 2 2 2h10z" fill="#ba4753"/><path d="m54 46c-4.418 0-8 3.582-8 8s3.582 8 8 8 8-3.582 8-8-3.582-8-8-8zm0 13c-2.761 0-5-2.239-5-5s2.239-5 5-5 5 2.239 5 5-2.239 5-5 5z" fill="#546ded"/><g><path d="m41 34h2v2h-2z" fill="#c8cded"/></g><g><path d="m6 54h13v2h-13z" fill="#4c506e"/></g><g><path d="m6 51h13v2h-13z" fill="#4c506e"/></g><g><path d="m6 48h13v2h-13z" fill="#4c506e"/></g><g><path d="m6 45h13v2h-13z" fill="#4c506e"/></g><g><path d="m6 42h13v2h-13z" fill="#4c506e"/></g><g><path d="m6 39h13v2h-13z" fill="#4c506e"/></g><g><path d="m6 36h13v2h-13z" fill="#4c506e"/></g><g><path d="m6 33h13v2h-13z" fill="#4c506e"/></g><g><path d="m6 30h13v2h-13z" fill="#4c506e"/></g><g><path d="m6 27h13v2h-13z" fill="#4c506e"/></g><g><path d="m6 24h13v2h-13z" fill="#4c506e"/></g><g><path d="m6 21h13v2h-13z" fill="#4c506e"/></g><path d="m6.277 20h-1.277c-.552 0-1 .448-1 1v35c0 .552.448 1 1 1h1.277c-.171-.295-.277-.634-.277-1v-35c0-.366.106-.705.277-1z" fill="#e1656e"/><g fill="#3d54bd"><g><path d="m25 54c0-2.761 2.239-5 5-5h-1c-2.761 0-5 2.239-5 5s2.239 5 5 5h1c-2.761 0-5-2.239-5-5z"/><path d="m35 54c0 2.761-2.239 5-5 5h6.24c1.099-1.37 1.76-3.107 1.76-5s-.661-3.63-1.76-5h-6.24c2.761 0 5 2.239 5 5z"/></g><g><path d="m49 54c0-2.761 2.239-5 5-5h-6.24c-1.099 1.37-1.76 3.107-1.76 5s.661 3.63 1.76 5h6.24c-2.761 0-5-2.239-5-5z"/><path d="m55 49h-1c2.761 0 5 2.239 5 5s-2.239 5-5 5h1c2.761 0 5-2.239 5-5s-2.239-5-5-5z"/></g></g></g></svg>