<?xml version="1.0"?>
<svg xmlns="http://www.w3.org/2000/svg" id="Layer_1" data-name="Layer 1" viewBox="0 0 512 512" width="512" height="512"><title>Technician</title><path d="M351.23,228l33,104s-13.42,3.3-34.83,4.67L343.21,321l-11,16s-19.75-.01-33-1.5h-2.02V311.52a93.4,93.4,0,0,0,51.05-83.19v-.15a22.2,22.2,0,0,0,2.84-.69Z" style="fill:#af593c"/><path d="M382.64,417.87v78H347.6V417.42H336.98V369.68l18.33,7.82A49.763,49.763,0,0,1,382.64,417.87Z" style="fill:#f8ec7d"/><path d="M372.02,136.25v26.99H290.4c-.13-.16-.19-.24-.19-.24l-.3.24H138.39V136.25H372.02Z" style="fill:#e2d574"/><path d="M161.18,228.09a23.777,23.777,0,0,1-18.43-28.96,17.749,17.749,0,0,1,13.97-13.32l2.49.19c64.34,27.85,125.91-19,130.7-22.76h.49c2.44,3.03,28.45,34.13,60.81,21.76h.03l-.04.52a17.875,17.875,0,0,1,15.93,13.61,23.828,23.828,0,0,1-4.93,21.01,23.841,23.841,0,0,1-11.12,7.35,22.2,22.2,0,0,1-2.84.69v.15a93.275,93.275,0,0,1-186.55,0v-.14C161.52,228.16,161.35,228.13,161.18,228.09Z" style="fill:#e48e66"/><path d="M357.95,135.14v1.11H152.46v-.93c0-43.38,24-81.39,58.72-98.99V49.46a63.432,63.432,0,0,0,43.81,60.33l1.44.47a63.436,63.436,0,0,0,42.81-59.99V36.32C333.95,53.88,357.95,91.76,357.95,135.14Z" style="fill:#f8ec7d"/><path d="M352.74,163.24l-1.49,21.58-.01.18h-.03c-32.36,12.37-58.37-18.73-60.81-21.76Z" style="fill:#af593c"/><polygon points="347.6 417.42 347.6 495.87 162.82 495.87 162.82 417.42 173.44 417.42 194.68 417.42 315.74 417.42 336.98 417.42 347.6 417.42" style="fill:#6fe3ff"/><polygon points="336.98 369.68 336.98 417.42 315.74 417.42 315.74 360.62 336.98 369.68" style="fill:#6fe3ff"/><path d="M315.74,360.62v56.8H194.68V360.61l18.35-7.83a94.914,94.914,0,0,0,84.35,0Z" style="fill:#f8ec7d"/><path d="M299.24,36.32V50.27a63.436,63.436,0,0,1-42.81,59.99l-1.44-.47a63.432,63.432,0,0,1-43.81-60.33V36.33a95.817,95.817,0,0,1,18.89-7.23L228.71,16h53l-1.36,13.1A97.048,97.048,0,0,1,299.24,36.32Z" style="fill:#6fe3ff"/><path d="M297.19,352.7l.19.08a94.914,94.914,0,0,1-84.35,0l.2-.08V311.75a93.411,93.411,0,0,0,83.96-.23V352.7Z" style="fill:#d38466"/><path d="M157.21,163.24h132.7c-4.79,3.76-66.36,50.61-130.7,22.76l-2.49-.19a19.645,19.645,0,0,1,2.02-.29l-.09-1.28Z" style="fill:#af593c"/><path d="M213.23,311.75V335.5c-48.58,5.46-85.02-3.5-85.02-3.5l32.97-103.91c.17.04.34.07.51.1v.14a93.318,93.318,0,0,0,51.54,83.42Z" style="fill:#af593c"/><polygon points="194.68 360.61 194.68 417.42 173.44 417.42 173.44 369.68 194.68 360.61" style="fill:#6fe3ff"/><path d="M173.44,369.68v47.74H162.82v78.45H127.77v-78A49.763,49.763,0,0,1,155.1,377.5Z" style="fill:#f8ec7d"/><path d="M326.36,447.78a7,7,0,0,1-7-7v-6.37a7,7,0,1,1,14,0v6.37A7,7,0,0,1,326.36,447.78Z" style="fill:#2561a1"/><path d="M184.06,447.78a7,7,0,0,1-7-7v-6.37a7,7,0,0,1,14,0v6.37A7,7,0,0,1,184.06,447.78Z" style="fill:#2561a1"/><path d="M268.95,78.75H243.92a7,7,0,1,1,0-14h25.03a7,7,0,0,1,0,14Z" style="fill:#2561a1"/><path d="M268.95,55.68H243.92a7,7,0,1,1,0-14h25.03a7,7,0,0,1,0,14Z" style="fill:#2561a1"/></svg>
